# This file uses centimeters as units for non-parametric coordinates.
# UVs by headus UVLayout v2.08.00 2012/05/02 13:00:06

mtllib coffeecup.mtl
g default
v 250.450819 384.051455 161.050680
v 232.394575 384.051455 150.625902
v 211.861769 384.051455 154.246385
v 198.459944 384.051455 170.218067
v 198.459944 384.051455 191.067617
v 211.861769 384.051455 207.039299
v 232.394575 384.051455 210.659786
v 250.450804 384.051455 200.235012
v 257.581770 384.051455 180.642845
v 250.450819 445.011454 161.050680
v 232.394575 445.011454 150.625902
v 211.861769 445.011454 154.246385
v 198.459944 445.011454 170.218067
v 198.459944 445.011454 191.067617
v 211.861769 445.011454 207.039299
v 232.394575 445.011454 210.659786
v 250.450804 445.011454 200.235012
v 257.581770 445.011454 180.642845
v 227.101774 384.051455 180.642845
v 247.760633 445.011454 163.308012
v 231.784758 445.011454 154.084337
v 213.617659 445.011454 157.287681
v 201.759947 445.011454 171.419168
v 201.759947 445.011454 189.866516
v 213.617659 445.011454 203.998003
v 231.784758 445.011454 207.201351
v 247.760618 445.011454 197.977680
v 254.069990 445.011454 180.642844
v 247.760633 401.209174 163.308012
v 231.784758 401.209172 154.084339
v 227.101774 401.209174 180.642845
v 213.617659 401.209170 157.287681
v 201.759947 401.209172 171.419165
v 201.759947 401.209172 189.866521
v 213.617659 401.209172 203.998006
v 231.784758 401.209174 207.201347
v 247.760618 401.209172 197.977678
v 254.069990 401.209172 180.642844
v 255.975859 441.835843 179.646951
v 255.906248 440.667172 183.250128
v 250.602873 389.170924 183.250128
v 250.911894 388.041699 179.646951
v 284.466688 421.020554 183.250128
v 285.536085 421.409008 179.646951
v 276.948469 435.892831 183.250128
v 277.859938 436.613992 179.646951
v 280.266188 404.256632 183.250128
v 281.417189 404.098526 179.646951
v 266.871840 393.738005 183.250128
v 267.759321 392.955199 179.646951
v 255.680937 436.885272 183.250128
v 249.602888 392.825173 183.250128
v 280.998640 419.683242 183.250128
v 275.265669 432.745259 183.250128
v 276.859907 405.248515 183.250128
v 264.279799 396.422351 183.250128
v 255.611311 435.716601 179.646951
v 249.293882 393.954400 179.646951
v 279.921797 419.248819 179.646951
v 275.058180 431.582879 179.646951
v 275.649641 405.351987 179.646951
v 263.564924 397.291045 179.646951
v 255.793592 438.776221 177.420066
v 250.102888 390.998050 177.420066
v 282.734541 420.359687 177.420066
v 276.611921 433.997521 177.420066
v 278.461592 404.610963 177.420066
v 265.540907 395.061566 177.420066
# 114 texture coords
vt 0.829085 0.137068
vt 0.896779 0.181888
vt 0.755372 0.095384
vt 0.680930 0.055508
vt 0.815467 0.149985
vt 0.881889 0.192992
vt 0.743665 0.108476
vt 0.669714 0.070414
vt 0.803545 0.166051
vt 0.867413 0.208379
vt 0.731667 0.124619
vt 0.659993 0.087573
vt 0.797758 0.183724
vt 0.860368 0.226050
vt 0.726433 0.141874
vt 0.653379 0.105213
vt 0.696265 0.324087
vt 0.866908 0.550652
vt 0.001902 0.430526
vt 0.001902 0.323370
vt 0.315213 0.323366
vt 0.315213 0.430525
vt 0.001899 0.216217
vt 0.315210 0.216203
vt 0.001902 0.537684
vt 0.315214 0.537681
vt 0.001892 0.109061
vt 0.315203 0.109044
vt 0.001903 0.644843
vt 0.315214 0.644837
vt 0.001887 0.001901
vt 0.315198 0.001887
vt 0.001905 0.751999
vt 0.315216 0.751997
vt 0.001903 0.859154
vt 0.315214 0.859159
vt 0.001902 0.966312
vt 0.315213 0.966317
vt 0.692453 0.842014
vt 0.729109 0.741320
vt 0.742935 0.752922
vt 0.710502 0.842014
vt 0.821908 0.687736
vt 0.825043 0.705511
vt 0.729104 0.942709
vt 0.742931 0.931108
vt 0.927441 0.706342
vt 0.918416 0.721974
vt 0.821903 0.996291
vt 0.825037 0.978517
vt 0.996319 0.788434
vt 0.979359 0.794607
vt 0.927432 0.977675
vt 0.918408 0.962044
vt 0.996321 0.895594
vt 0.979360 0.889420
vt 0.723468 0.169812
vt 0.816270 0.223391
vt 0.852920 0.324087
vt 0.617937 0.188420
vt 0.816270 0.424784
vt 0.549057 0.270508
vt 0.723468 0.478363
vt 0.549057 0.377667
vt 0.617937 0.459755
vt 0.544943 0.901901
vt 0.544939 0.996715
vt 0.319811 0.996704
vt 0.319816 0.901894
vt 0.544944 0.807086
vt 0.319818 0.807085
vt 0.544943 0.712271
vt 0.319816 0.712278
vt 0.544939 0.617465
vt 0.319811 0.617462
vt 0.544944 0.522659
vt 0.319816 0.522645
vt 0.544949 0.427845
vt 0.319821 0.427836
vt 0.544949 0.333032
vt 0.319822 0.333026
vt 0.544952 0.238223
vt 0.319825 0.238211
vt 0.544958 0.143413
vt 0.319832 0.143396
vt 0.760729 0.639746
vt 0.728302 0.550652
vt 0.760729 0.461557
vt 0.842839 0.687152
vt 0.842839 0.414151
vt 0.936211 0.670688
vt 0.936211 0.430615
vt 0.997156 0.598058
vt 0.997156 0.503245
vt 0.791280 0.200763
vt 0.722354 0.159527
vt 0.590907 0.052573
vt 0.597853 0.037266
vt 0.766176 0.079135
vt 0.840403 0.121020
vt 0.965682 0.257283
vt 0.954886 0.268750
vt 0.648169 0.123482
vt 0.854472 0.243506
vt 0.581088 0.067095
vt 0.951490 0.286159
vt 0.603000 0.019905
vt 0.690323 0.038451
vt 0.908431 0.166024
vt 0.982418 0.248739
vt 0.570760 0.082951
vt 0.946199 0.304677
vt 0.609555 0.001874
vt 0.996957 0.236068
vn 0.500000 0.000000 -0.866025
vn 0.500000 0.000000 -0.866025
vn 0.500000 0.000000 -0.866025
vn 0.500000 0.000000 -0.866025
vn -0.173648 0.000000 -0.984808
vn -0.173648 0.000000 -0.984808
vn -0.173648 0.000000 -0.984808
vn -0.173648 0.000000 -0.984808
vn -0.766045 0.000000 -0.642787
vn -0.766045 0.000000 -0.642787
vn -0.766045 0.000000 -0.642787
vn -0.766045 0.000000 -0.642787
vn -1.000000 0.000000 0.000000
vn -1.000000 0.000000 0.000000
vn -1.000000 0.000000 0.000000
vn -1.000000 0.000000 0.000000
vn -0.766045 0.000000 0.642787
vn -0.766045 0.000000 0.642787
vn -0.766045 0.000000 0.642787
vn -0.766045 0.000000 0.642787
vn -0.173648 0.000000 0.984808
vn -0.173648 0.000000 0.984808
vn -0.173648 0.000000 0.984808
vn -0.173648 0.000000 0.984808
vn 0.500000 0.000000 0.866025
vn 0.500000 0.000000 0.866025
vn 0.500000 0.000000 0.866025
vn 0.500000 0.000000 0.866025
vn 0.939693 0.000000 0.342020
vn 0.939693 0.000000 0.342020
vn 0.939693 0.000000 0.342020
vn 0.939693 0.000000 0.342020
vn 0.939693 0.000000 -0.342020
vn 0.939693 0.000000 -0.342020
vn 0.939693 0.000000 -0.342020
vn 0.939693 0.000000 -0.342020
vn 0.000000 -1.000000 -0.000000
vn 0.000000 -1.000000 -0.000000
vn 0.000000 -1.000000 -0.000000
vn 0.000000 -1.000000 -0.000000
vn 0.000000 -1.000000 -0.000000
vn 0.000000 -1.000000 -0.000000
vn 0.000000 -1.000000 -0.000000
vn 0.000000 -1.000000 -0.000000
vn 0.000000 -1.000000 -0.000000
vn 0.000000 -1.000000 0.000000
vn 0.000000 -1.000000 -0.000000
vn 0.000000 -1.000000 -0.000000
vn 0.000000 -1.000000 0.000000
vn 0.000000 -1.000000 0.000000
vn 0.000000 -1.000000 -0.000000
vn 0.000000 -1.000000 0.000000
vn 0.000000 -1.000000 0.000000
vn 0.000000 -1.000000 -0.000000
vn 0.000000 -1.000000 0.000000
vn 0.000000 -1.000000 0.000000
vn 0.000000 -1.000000 -0.000000
vn 0.000000 -1.000000 0.000000
vn 0.000000 -1.000000 0.000000
vn 0.000000 -1.000000 -0.000000
vn 0.000000 -1.000000 -0.000000
vn 0.000000 -1.000000 0.000000
vn 0.000000 -1.000000 -0.000000
vn 0.000000 1.000000 0.000000
vn -0.000000 1.000000 -0.000000
vn -0.000000 1.000000 -0.000000
vn -0.000000 1.000000 -0.000000
vn -0.000000 1.000000 -0.000000
vn -0.000000 1.000000 -0.000000
vn -0.000000 1.000000 -0.000000
vn -0.000000 1.000000 -0.000000
vn -0.000000 1.000000 -0.000000
vn -0.000000 1.000000 -0.000000
vn -0.000000 1.000000 0.000000
vn -0.000000 1.000000 -0.000000
vn -0.000000 1.000000 0.000000
vn -0.000000 1.000000 0.000000
vn -0.000000 1.000000 -0.000000
vn -0.000000 1.000000 0.000000
vn -0.000000 1.000000 0.000000
vn -0.000000 1.000000 -0.000000
vn -0.000000 1.000000 0.000000
vn 0.000000 1.000000 0.000000
vn -0.000000 1.000000 -0.000000
vn 0.000000 1.000000 0.000000
vn 0.000000 1.000000 0.000000
vn -0.000000 1.000000 -0.000000
vn 0.000000 1.000000 0.000000
vn 0.000000 1.000000 0.000000
vn -0.000000 1.000000 -0.000000
vn 0.000000 1.000000 -0.000000
vn 0.000000 1.000000 -0.000000
vn 0.000000 1.000000 -0.000000
vn 0.000000 1.000000 -0.000000
vn 0.000000 1.000000 -0.000000
vn 0.000000 1.000000 -0.000000
vn 0.000000 1.000000 -0.000000
vn 0.000000 1.000000 -0.000000
vn 0.000000 1.000000 -0.000000
vn 0.000000 1.000000 -0.000000
vn 0.000000 1.000000 -0.000000
vn 0.000000 1.000000 -0.000000
vn 0.000000 1.000000 -0.000000
vn 0.000000 1.000000 0.000000
vn 0.000000 1.000000 0.000000
vn 0.000000 1.000000 -0.000000
vn 0.000000 1.000000 0.000000
vn 0.000000 1.000000 0.000000
vn 0.000000 1.000000 0.000000
vn 0.000000 1.000000 0.000000
vn 0.000000 1.000000 0.000000
vn 0.000000 1.000000 0.000000
vn 0.000000 1.000000 0.000000
vn 0.000000 1.000000 0.000000
vn 0.000000 1.000000 0.000000
vn 0.000000 1.000000 -0.000000
vn 0.000000 1.000000 -0.000000
vn 0.000000 1.000000 0.000000
vn 0.000000 1.000000 -0.000000
vn 0.000000 1.000000 -0.000000
vn 0.000000 1.000000 -0.000000
vn 0.000000 1.000000 -0.000000
vn 0.000000 1.000000 -0.000000
vn 0.000000 1.000000 -0.000000
vn 0.000000 1.000000 -0.000000
vn 0.000000 1.000000 -0.000000
vn -0.500000 0.000000 0.866026
vn -0.500000 0.000000 0.866026
vn -0.500000 0.000000 0.866026
vn -0.500000 0.000000 0.866026
vn 0.173648 0.000000 0.984808
vn 0.173648 0.000000 0.984808
vn 0.173648 0.000000 0.984808
vn 0.173648 0.000000 0.984808
vn 0.766045 0.000000 0.642787
vn 0.766045 0.000000 0.642787
vn 0.766045 0.000000 0.642787
vn 0.766045 0.000000 0.642787
vn 1.000000 0.000000 0.000000
vn 1.000000 0.000000 0.000000
vn 1.000000 0.000000 0.000000
vn 1.000000 0.000000 0.000000
vn 0.766045 -0.000000 -0.642787
vn 0.766045 -0.000000 -0.642787
vn 0.766045 -0.000000 -0.642787
vn 0.766045 -0.000000 -0.642787
vn 0.173648 -0.000000 -0.984808
vn 0.173648 -0.000000 -0.984808
vn 0.173648 -0.000000 -0.984808
vn 0.173648 -0.000000 -0.984808
vn -0.500000 0.000000 -0.866025
vn -0.500000 0.000000 -0.866025
vn -0.500000 0.000000 -0.866025
vn -0.500000 0.000000 -0.866025
vn -0.939693 0.000000 -0.342020
vn -0.939692 0.000000 -0.342020
vn -0.939692 0.000000 -0.342020
vn -0.939692 0.000000 -0.342020
vn -0.939693 0.000000 0.342020
vn -0.939693 0.000000 0.342020
vn -0.939693 0.000000 0.342020
vn -0.939693 0.000000 0.342020
vn 0.428766 -0.857597 0.284056
vn 0.263561 -0.920638 0.288029
vn 0.263561 -0.920638 0.288029
vn 0.453230 -0.845397 0.282642
vn 0.525434 0.791707 0.311640
vn 0.947714 0.087504 0.306889
vn 0.944233 0.116880 0.307837
vn 0.555067 0.770505 0.313407
vn 0.218041 0.936326 0.275231
vn 0.218041 0.936326 0.275231
vn 0.525434 0.791707 0.311640
vn 0.555067 0.770505 0.313407
vn 0.947714 0.087504 0.306889
vn 0.795235 -0.533530 0.288007
vn 0.822183 -0.490460 0.288903
vn 0.944233 0.116880 0.307837
vn 0.795235 -0.533530 0.288007
vn 0.428766 -0.857597 0.284056
vn 0.453230 -0.845397 0.282642
vn 0.822183 -0.490460 0.288903
vn -0.000000 0.000000 1.000000
vn 0.000000 0.000000 1.000000
vn 0.000000 0.000000 1.000000
vn -0.000000 0.000000 1.000000
vn 0.000000 0.000000 1.000000
vn 0.000000 0.000000 1.000000
vn 0.000000 0.000000 1.000000
vn 0.000000 0.000000 1.000000
vn 0.000000 0.000000 1.000000
vn 0.000000 0.000000 1.000000
vn 0.000000 0.000000 1.000000
vn 0.000000 0.000000 1.000000
vn 0.000000 0.000000 1.000000
vn -0.000000 0.000000 1.000000
vn -0.000000 0.000000 1.000000
vn 0.000000 0.000000 1.000000
vn -0.000000 0.000000 1.000000
vn -0.000000 0.000000 1.000000
vn -0.000000 0.000000 1.000000
vn -0.000000 0.000000 1.000000
vn -0.382028 0.881676 0.276952
vn -0.222947 0.930780 0.289730
vn -0.222947 0.930780 0.289730
vn -0.398499 0.874933 0.275118
vn -0.565943 -0.763224 0.311764
vn -0.960492 -0.018942 0.277662
vn -0.959437 -0.060066 0.275452
vn -0.495956 -0.809046 0.315392
vn -0.197248 -0.930522 0.308582
vn -0.197248 -0.930522 0.308582
vn -0.565943 -0.763224 0.311764
vn -0.495956 -0.809046 0.315392
vn -0.960492 -0.018942 0.277662
vn -0.755037 0.592814 0.280163
vn -0.794626 0.537159 0.282895
vn -0.959437 -0.060066 0.275452
vn -0.755037 0.592814 0.280163
vn -0.382028 0.881676 0.276952
vn -0.398499 0.874933 0.275118
vn -0.794626 0.537159 0.282895
vn -0.278193 0.564758 -0.776954
vn -0.148732 0.597106 -0.788254
vn -0.148732 0.597106 -0.788254
vn -0.243858 0.574457 -0.781366
vn -0.309743 -0.491022 -0.814221
vn -0.613854 -0.066292 -0.786631
vn -0.618882 0.004040 -0.785474
vn -0.337955 -0.470775 -0.814959
vn -0.132770 -0.599838 -0.789029
vn -0.132770 -0.599838 -0.789029
vn -0.309743 -0.491022 -0.814221
vn -0.337955 -0.470775 -0.814959
vn -0.613854 -0.066292 -0.786631
vn -0.534089 0.325341 -0.780321
vn -0.489616 0.390858 -0.779427
vn -0.618882 0.004040 -0.785474
vn -0.534089 0.325341 -0.780321
vn -0.278193 0.564758 -0.776954
vn -0.243858 0.574457 -0.781366
vn -0.489616 0.390858 -0.779427
vn 0.302676 -0.549667 -0.778623
vn 0.165143 -0.593927 -0.787387
vn 0.165143 -0.593927 -0.787387
vn 0.261269 -0.564435 -0.783040
vn 0.300304 0.501027 -0.811658
vn 0.612125 0.086227 -0.786046
vn 0.615791 0.027393 -0.787434
vn 0.352985 0.467068 -0.810709
vn 0.138085 0.589623 -0.795787
vn 0.138085 0.589623 -0.795787
vn 0.300304 0.501027 -0.811658
vn 0.352985 0.467068 -0.810709
vn 0.612125 0.086227 -0.786046
vn 0.543179 -0.295717 -0.785817
vn 0.498391 -0.370281 -0.783900
vn 0.615791 0.027393 -0.787434
vn 0.543179 -0.295717 -0.785817
vn 0.302676 -0.549667 -0.778623
vn 0.261269 -0.564435 -0.783040
vn 0.498391 -0.370281 -0.783900
s off
g coffeeCup6
usemtl coffeeMaker1SG
f 1/20/1 2/23/2 11/24/3 10/21/4
f 2/23/5 3/27/6 12/28/7 11/24/8
f 3/27/9 4/31/10 13/32/11 12/28/12
f 4/37/13 5/35/14 14/36/15 13/38/16
f 5/35/17 6/33/18 15/34/19 14/36/20
f 6/33/21 7/29/22 16/30/23 15/34/24
f 7/29/25 8/25/26 17/26/27 16/30/28
f 8/25/29 9/19/30 18/22/31 17/26/32
f 9/19/33 1/20/34 10/21/35 18/22/36
f 2/57/37 1/58/38 19/17/39
f 3/60/40 2/57/41 19/17/42
f 4/62/43 3/60/44 19/17/45
f 5/64/46 4/62/47 19/17/48
f 6/65/49 5/64/50 19/17/51
f 7/63/52 6/65/53 19/17/54
f 8/61/55 7/63/56 19/17/57
f 9/59/58 8/61/59 19/17/60
f 1/58/61 9/59/62 19/17/63
f 29/88/64 30/90/65 31/18/66
f 30/90/67 32/92/68 31/18/69
f 32/92/70 33/94/71 31/18/72
f 33/94/73 34/93/74 31/18/75
f 34/93/76 35/91/77 31/18/78
f 35/91/79 36/89/80 31/18/81
f 36/89/82 37/86/83 31/18/84
f 37/86/85 38/87/86 31/18/87
f 38/87/88 29/88/89 31/18/90
f 10/40/91 11/43/92 21/44/93 20/41/94
f 11/43/95 12/47/96 22/48/97 21/44/98
f 12/47/99 13/51/100 23/52/101 22/48/102
f 13/51/103 14/55/104 24/56/105 23/52/106
f 14/55/107 15/53/108 25/54/109 24/56/110
f 15/53/111 16/49/112 26/50/113 25/54/114
f 16/49/115 17/45/116 27/46/117 26/50/118
f 17/45/119 18/39/120 28/42/121 27/46/122
f 18/39/123 10/40/124 20/41/125 28/42/126
f 20/82/127 21/80/128 30/81/129 29/83/130
f 21/80/131 22/78/132 32/79/133 30/81/134
f 22/78/135 23/76/136 33/77/137 32/79/138
f 23/76/139 24/74/140 34/75/141 33/77/142
f 24/74/143 25/72/144 35/73/145 34/75/146
f 25/72/147 26/70/148 36/71/149 35/73/150
f 26/70/151 27/66/152 37/69/153 36/71/154
f 27/66/155 28/67/156 38/68/157 37/69/158
f 28/84/159 20/82/160 29/83/161 38/85/162
f 49/4/163 41/107/164 42/113/165 50/108/166
f 45/2/167 43/1/168 44/100/169 46/109/170
f 39/114/171 40/110/172 45/2/173 46/109/174
f 43/1/175 47/3/176 48/99/177 44/100/178
f 47/3/179 49/4/180 50/108/181 48/99/182
f 56/8/183 52/98/184 41/107/185 49/4/186
f 54/6/187 53/5/188 43/1/189 45/2/190
f 40/110/191 51/101/192 54/6/193 45/2/194
f 53/5/195 55/7/196 47/3/197 43/1/198
f 55/7/199 56/8/200 49/4/201 47/3/202
f 62/12/203 58/97/204 52/98/205 56/8/206
f 60/10/207 59/9/208 53/5/209 54/6/210
f 51/101/211 57/102/212 60/10/213 54/6/214
f 59/9/215 61/11/216 55/7/217 53/5/218
f 61/11/219 62/12/220 56/8/221 55/7/222
f 68/16/223 64/105/224 58/97/225 62/12/226
f 66/14/227 65/13/228 59/9/229 60/10/230
f 57/102/231 63/106/232 66/14/233 60/10/234
f 65/13/235 67/15/236 61/11/237 59/9/238
f 67/15/239 68/16/240 62/12/241 61/11/242
f 50/103/243 42/111/244 64/105/245 68/16/246
f 46/104/247 44/95/248 65/13/249 66/14/250
f 63/106/251 39/112/252 46/104/253 66/14/254
f 44/95/255 48/96/256 67/15/257 65/13/258
f 48/96/259 50/103/260 68/16/261 67/15/262
